<mxfile host="app.diagrams.net" agent="Mozilla/5.0 (Macintosh; Intel Mac OS X 10_15_7) AppleWebKit/537.36 (KHTML, like Gecko) Chrome/131.0.0.0 Safari/537.36" version="25.0.3">
  <diagram name="Page-1" id="b5b7bab2-c9e2-2cf4-8b2a-24fd1a2a6d21">
    <mxGraphModel dx="1605" dy="865" grid="1" gridSize="10" guides="1" tooltips="1" connect="1" arrows="1" fold="1" page="1" pageScale="1" pageWidth="827" pageHeight="1169" background="none" math="0" shadow="0">
      <root>
        <mxCell id="0" />
        <mxCell id="1" parent="0" />
        <mxCell id="6e0c8c40b5770093-72" value="" style="shape=folder;fontStyle=1;spacingTop=10;tabWidth=194;tabHeight=22;tabPosition=left;html=1;rounded=0;shadow=0;comic=0;labelBackgroundColor=none;strokeWidth=1;fillColor=#d5e8d4;fontFamily=Verdana;fontSize=10;align=center;strokeColor=#82b366;" parent="1" vertex="1">
          <mxGeometry x="308" y="114.5" width="1001" height="635.5" as="geometry" />
        </mxCell>
        <mxCell id="6e0c8c40b5770093-73" value="Proyecto_Ahorro_Hormiga" style="text;html=1;align=left;verticalAlign=top;spacingTop=-4;fontSize=10;fontFamily=Verdana" parent="1" vertex="1">
          <mxGeometry x="327.5" y="114.5" width="130" height="20" as="geometry" />
        </mxCell>
        <mxCell id="8hcRl35fw6gC15tIrMHj-1" value="App" style="shape=folder;fontStyle=1;spacingTop=10;tabWidth=40;tabHeight=14;tabPosition=left;html=1;whiteSpace=wrap;" vertex="1" parent="1">
          <mxGeometry x="680" y="230" width="120" height="80" as="geometry" />
        </mxCell>
        <mxCell id="8hcRl35fw6gC15tIrMHj-20" value="" style="shape=folder;fontStyle=1;spacingTop=10;tabWidth=123;tabHeight=24;tabPosition=left;html=1;rounded=0;shadow=0;comic=0;labelBackgroundColor=none;strokeColor=#000000;strokeWidth=1;fillColor=#ffffff;fontFamily=Verdana;fontSize=10;fontColor=#000000;align=center;" vertex="1" parent="1">
          <mxGeometry x="430" y="420" width="190" height="150" as="geometry" />
        </mxCell>
        <mxCell id="8hcRl35fw6gC15tIrMHj-4" value="" style="group" vertex="1" connectable="0" parent="1">
          <mxGeometry x="448.5" y="430" width="280" height="130" as="geometry" />
        </mxCell>
        <mxCell id="8hcRl35fw6gC15tIrMHj-7" value="services" style="shape=folder;fontStyle=1;spacingTop=10;tabWidth=50;tabHeight=17;tabPosition=left;html=1;rounded=0;shadow=0;comic=0;labelBackgroundColor=none;strokeWidth=1;fontFamily=Verdana;fontSize=10;align=center;" vertex="1" parent="8hcRl35fw6gC15tIrMHj-4">
          <mxGeometry x="18" y="39" width="112" height="70" as="geometry" />
        </mxCell>
        <mxCell id="8hcRl35fw6gC15tIrMHj-21" value="BLO&amp;nbsp;" style="text;html=1;align=center;verticalAlign=middle;whiteSpace=wrap;rounded=0;" vertex="1" parent="1">
          <mxGeometry x="440" y="420" width="60" height="30" as="geometry" />
        </mxCell>
        <mxCell id="8hcRl35fw6gC15tIrMHj-26" style="rounded=0;html=1;dashed=1;labelBackgroundColor=none;startFill=0;endArrow=open;endFill=0;endSize=10;fontFamily=Verdana;fontSize=10;edgeStyle=elbowEdgeStyle;exitX=0;exitY=0;exitDx=0;exitDy=63.5;exitPerimeter=0;entryX=0.5;entryY=0;entryDx=0;entryDy=0;" edge="1" parent="1" source="8hcRl35fw6gC15tIrMHj-1" target="8hcRl35fw6gC15tIrMHj-21">
          <mxGeometry relative="1" as="geometry">
            <mxPoint x="537" y="255" as="sourcePoint" />
            <mxPoint x="537" y="331" as="targetPoint" />
            <Array as="points">
              <mxPoint x="470" y="360" />
            </Array>
          </mxGeometry>
        </mxCell>
        <mxCell id="8hcRl35fw6gC15tIrMHj-31" value="" style="shape=folder;fontStyle=1;spacingTop=10;tabWidth=123;tabHeight=24;tabPosition=left;html=1;rounded=0;shadow=0;comic=0;labelBackgroundColor=none;strokeColor=#000000;strokeWidth=1;fillColor=#ffffff;fontFamily=Verdana;fontSize=10;fontColor=#000000;align=center;" vertex="1" parent="1">
          <mxGeometry x="780" y="350" width="370" height="320" as="geometry" />
        </mxCell>
        <mxCell id="8hcRl35fw6gC15tIrMHj-18" value="daos" style="shape=folder;fontStyle=1;spacingTop=10;tabWidth=40;tabHeight=14;tabPosition=left;html=1;whiteSpace=wrap;" vertex="1" parent="1">
          <mxGeometry x="910" y="410" width="108" height="50" as="geometry" />
        </mxCell>
        <mxCell id="8hcRl35fw6gC15tIrMHj-17" value="converters" style="shape=folder;fontStyle=1;spacingTop=10;tabWidth=40;tabHeight=14;tabPosition=left;html=1;whiteSpace=wrap;" vertex="1" parent="1">
          <mxGeometry x="790" y="400" width="103.5" height="60" as="geometry" />
        </mxCell>
        <mxCell id="8hcRl35fw6gC15tIrMHj-29" style="rounded=0;html=1;dashed=1;labelBackgroundColor=none;startFill=0;endArrow=open;endFill=0;endSize=10;fontFamily=Verdana;fontSize=10;edgeStyle=elbowEdgeStyle;entryX=0;entryY=0;entryDx=120;entryDy=47;entryPerimeter=0;" edge="1" parent="1" target="8hcRl35fw6gC15tIrMHj-1">
          <mxGeometry relative="1" as="geometry">
            <mxPoint x="880" y="350" as="sourcePoint" />
            <mxPoint x="893.5" y="210" as="targetPoint" />
            <Array as="points">
              <mxPoint x="880" y="330" />
            </Array>
          </mxGeometry>
        </mxCell>
        <mxCell id="8hcRl35fw6gC15tIrMHj-22" value="dtos&amp;nbsp;" style="shape=folder;fontStyle=1;spacingTop=10;tabWidth=40;tabHeight=14;tabPosition=left;html=1;whiteSpace=wrap;" vertex="1" parent="1">
          <mxGeometry x="1030" y="410" width="108" height="50" as="geometry" />
        </mxCell>
        <mxCell id="8hcRl35fw6gC15tIrMHj-32" value="DAL&amp;nbsp;" style="text;html=1;align=center;verticalAlign=middle;whiteSpace=wrap;rounded=0;" vertex="1" parent="1">
          <mxGeometry x="790" y="350" width="60" height="30" as="geometry" />
        </mxCell>
        <mxCell id="8hcRl35fw6gC15tIrMHj-33" style="rounded=0;html=1;dashed=1;labelBackgroundColor=none;startFill=0;endArrow=open;endFill=0;endSize=10;fontFamily=Verdana;fontSize=10;edgeStyle=elbowEdgeStyle;entryX=0;entryY=0;entryDx=0;entryDy=24;entryPerimeter=0;" edge="1" parent="1" target="8hcRl35fw6gC15tIrMHj-31">
          <mxGeometry relative="1" as="geometry">
            <mxPoint x="560" y="430" as="sourcePoint" />
            <mxPoint x="810" y="287" as="targetPoint" />
            <Array as="points">
              <mxPoint x="630" y="410" />
            </Array>
          </mxGeometry>
        </mxCell>
        <mxCell id="8hcRl35fw6gC15tIrMHj-8" value="connection&amp;nbsp;" style="shape=folder;fontStyle=1;spacingTop=10;tabWidth=50;tabHeight=17;tabPosition=left;html=1;rounded=0;shadow=0;comic=0;labelBackgroundColor=none;strokeWidth=1;fontFamily=Verdana;fontSize=10;align=center;" vertex="1" parent="1">
          <mxGeometry x="790" y="480" width="112" height="70" as="geometry" />
        </mxCell>
        <mxCell id="8hcRl35fw6gC15tIrMHj-9" value="connection.PostgreSQL" style="shape=folder;fontStyle=1;spacingTop=10;tabWidth=40;tabHeight=14;tabPosition=left;html=1;whiteSpace=wrap;" vertex="1" parent="1">
          <mxGeometry x="910" y="480" width="173" height="70" as="geometry" />
        </mxCell>
        <mxCell id="8hcRl35fw6gC15tIrMHj-12" value="connection.confg" style="shape=folder;fontStyle=1;spacingTop=10;tabWidth=40;tabHeight=14;tabPosition=left;html=1;whiteSpace=wrap;" vertex="1" parent="1">
          <mxGeometry x="790" y="570" width="130" height="80" as="geometry" />
        </mxCell>
        <mxCell id="8hcRl35fw6gC15tIrMHj-23" value="entities" style="shape=folder;fontStyle=1;spacingTop=10;tabWidth=40;tabHeight=14;tabPosition=left;html=1;whiteSpace=wrap;" vertex="1" parent="1">
          <mxGeometry x="940" y="585" width="70" height="50" as="geometry" />
        </mxCell>
      </root>
    </mxGraphModel>
  </diagram>
</mxfile>
